<?xml version="1.0" standalone="no"?>
<!DOCTYPE svg PUBLIC "-//W3C//DTD SVG 20010904//EN"
 "http://www.w3.org/TR/2001/REC-SVG-20010904/DTD/svg10.dtd">
<svg version="1.0" xmlns="http://www.w3.org/2000/svg"
 width="1000.000000pt" height="1080.000000pt" viewBox="0 0 1000.000000 1080.000000"
 preserveAspectRatio="xMidYMid meet">

<g transform="translate(0.000000,1080.000000) scale(0.100000,-0.100000)"
fill="#000000" stroke="none">
<path d="M4043 7708 c-12 -16 -105 -547 -97 -559 9 -16 42 -10 48 9 3 9 26
133 51 276 34 197 43 262 34 272 -14 17 -24 18 -36 2z"/>
<path d="M3567 7472 c-7 -11 62 -324 74 -336 26 -28 23 23 -10 173 -34 149
-49 188 -64 163z"/>
<path d="M4412 7408 c-16 -24 -57 -87 -90 -140 -60 -93 -76 -134 -50 -126 14
5 186 267 187 285 2 29 -20 20 -47 -19z"/>
<path d="M3054 7426 c-5 -13 271 -419 312 -460 17 -17 44 -11 44 11 0 8 -70
115 -156 239 -154 220 -184 252 -200 210z"/>
<path d="M3490 6818 l-286 -200 -31 -222 c-18 -121 -29 -224 -25 -228 4 -3
134 -48 289 -98 l283 -93 -21 -26 c-138 -179 -220 -353 -265 -561 -26 -119
-26 -372 -1 -490 56 -259 162 -456 346 -641 252 -252 539 -372 891 -372 273 0
527 81 737 234 36 26 71 45 77 42 6 -4 36 -26 68 -49 70 -51 210 -124 306
-158 261 -93 584 -93 844 0 416 150 718 499 814 944 25 117 26 372 1 487 -129
602 -633 1015 -1237 1014 -77 0 -172 -6 -220 -15 -177 -32 -363 -110 -505
-211 -50 -36 -83 -54 -90 -49 -117 91 -272 173 -410 218 -241 77 -539 78 -765
2 -41 -14 -75 -24 -76 -23 -1 1 3 117 8 257 5 140 7 277 6 304 l-3 50 -200 42
c-110 24 -211 43 -225 43 -16 0 -124 -70 -310 -201z m477 110 c84 -17 153 -34
153 -37 0 -3 -21 -20 -46 -37 l-46 -32 -77 23 c-42 13 -109 33 -149 45 l-74
21 33 25 c18 13 38 24 43 24 6 0 79 -14 163 -32z m-152 -103 c72 -20 133 -40
138 -44 4 -4 -16 -23 -44 -43 l-52 -36 -131 45 c-72 25 -135 49 -139 53 -10 9
73 71 88 66 6 -2 69 -20 140 -41z m351 -192 c-7 -246 -14 -343 -25 -343 -4 0
-22 100 -40 223 -18 122 -35 231 -37 242 -3 15 9 29 49 57 28 20 54 37 55 37
2 1 1 -97 -2 -216z m-677 -21 c0 -71 -3 -139 -6 -153 -3 -15 -23 -36 -55 -57
-27 -18 -51 -32 -52 -30 -1 2 3 72 9 156 l10 152 45 30 c25 17 46 30 48 30 2
0 2 -58 1 -128z m188 91 c62 -21 113 -40 113 -43 0 -6 -235 -170 -243 -170 -3
0 -4 19 -2 43 2 23 4 79 4 125 1 45 4 82 8 82 4 0 58 -17 120 -37z m333 20 c0
-5 16 -109 35 -233 32 -210 33 -265 7 -234 -10 10 -152 380 -152 394 0 9 90
79 103 80 4 0 7 -3 7 -7z m-684 -210 c-11 -188 -11 -189 -64 -228 -26 -18 -47
-33 -48 -32 -3 3 45 330 48 332 2 1 16 11 32 23 16 12 31 22 33 22 3 0 2 -53
-1 -117z m594 -90 c41 -108 75 -200 75 -204 0 -4 -22 -24 -50 -43 -41 -30 -52
-33 -65 -23 -145 122 -309 272 -303 278 12 12 257 187 263 188 3 1 39 -87 80
-196z m-227 -187 c134 -117 160 -146 132 -148 -13 -1 -414 215 -415 223 0 3
23 22 52 42 44 31 54 35 67 24 9 -8 83 -71 164 -141z m1267 50 c719 -189 1090
-970 779 -1636 -41 -87 -116 -210 -128 -210 -4 0 -24 17 -45 39 l-37 38 51 89
c126 220 172 456 136 691 -78 509 -487 877 -1001 900 -180 8 -300 -15 -488
-92 -16 -7 -18 -2 -15 60 l3 67 50 19 c44 17 174 50 245 63 14 3 99 3 190 1
136 -3 182 -8 260 -29z m1521 19 c485 -90 849 -444 955 -930 24 -110 24 -350
0 -460 -80 -369 -306 -663 -631 -824 -174 -87 -323 -121 -526 -121 -324 0
-609 118 -834 345 -357 360 -445 907 -219 1357 40 80 103 178 114 178 8 0 80
-76 80 -84 0 -2 -20 -37 -45 -77 -116 -188 -172 -442 -146 -659 17 -137 44
-230 106 -355 135 -275 369 -467 675 -553 86 -25 111 -27 270 -27 152 0 186 3
260 23 304 83 548 280 680 547 211 427 129 913 -207 1235 -102 98 -170 146
-289 202 -332 155 -732 123 -1036 -83 -32 -22 -61 -39 -66 -39 -16 0 -87 81
-77 88 6 4 39 26 73 50 128 88 299 158 457 187 99 19 306 18 406 0z m-2906
-155 c128 -70 202 -116 190 -118 -11 -1 -134 36 -274 82 l-254 83 54 37 c30
20 59 35 64 34 6 -2 105 -55 220 -118z m523 -5 c-3 -3 -9 2 -12 12 -6 14 -5
15 5 6 7 -7 10 -15 7 -18z m-43 -70 c26 -77 12 -86 -50 -32 l-48 43 34 22 c19
12 36 22 39 22 3 0 14 -25 25 -55z m849 15 c44 -11 113 -35 155 -53 78 -34
211 -115 211 -129 0 -4 -15 -29 -34 -55 -78 -109 -156 -294 -191 -453 -25
-114 -30 -335 -11 -452 29 -177 93 -343 192 -497 l47 -73 -24 -19 c-77 -61
-218 -129 -336 -161 -118 -32 -364 -32 -483 0 -316 86 -569 315 -675 612 -40
115 -55 203 -56 330 0 171 31 302 109 455 55 109 189 275 222 275 9 0 48 -11
87 -24 39 -13 74 -22 77 -18 3 3 6 43 6 89 l0 84 63 29 c78 35 184 67 262 80
92 14 288 4 379 -20z m1526 16 c369 -60 664 -313 778 -666 63 -196 58 -431
-13 -630 -107 -297 -359 -526 -675 -612 -122 -33 -356 -33 -480 0 -89 24 -284
115 -334 156 l-29 24 47 74 c63 97 109 194 144 303 46 143 57 216 57 390 0
173 -11 247 -56 386 -32 100 -106 252 -155 322 -19 26 -34 51 -34 55 0 4 28
26 63 49 209 137 447 188 687 149z m-2495 -76 c3 -6 -1 -7 -9 -4 -18 7 -21 14
-7 14 6 0 13 -4 16 -10z m-5 -127 c0 -3 -23 -31 -52 -62 -244 -266 -327 -668
-211 -1026 111 -342 386 -599 746 -697 71 -19 107 -22 262 -22 152 0 192 3
257 21 115 32 218 78 313 140 l86 56 40 -39 c21 -21 39 -41 39 -45 0 -10 -153
-111 -215 -142 -286 -142 -652 -157 -955 -38 -537 211 -843 780 -721 1339 45
204 142 399 263 529 l30 31 59 -20 c32 -11 59 -22 59 -25z m1589 -278 c142
-251 165 -565 60 -835 -32 -84 -89 -183 -104 -183 -15 0 -72 99 -104 183 -44
113 -63 220 -64 350 0 121 11 193 45 300 35 109 111 255 128 245 4 -3 22 -30
39 -60z"/>
<path d="M2850 6966 c0 -7 61 -53 135 -100 157 -101 168 -106 163 -80 -3 18
-260 192 -285 193 -7 1 -13 -5 -13 -13z"/>
<path d="M2463 6594 c-3 -8 -2 -19 3 -24 9 -9 506 -100 545 -100 22 0 37 26
23 40 -10 10 -499 100 -541 100 -13 0 -26 -7 -30 -16z"/>
<path d="M2740 6187 c-143 -34 -168 -43 -153 -58 14 -14 343 61 343 78 0 19
-37 15 -190 -20z"/>
<path d="M0 400 l0 -400 5000 0 5000 0 0 400 0 400 -5000 0 -5000 0 0 -400z
m2192 123 c23 -20 23 -57 1 -74 -15 -11 -16 -11 -5 1 27 31 11 72 -33 83 -19
4 -19 5 -1 6 11 0 28 -6 38 -16z m-69 -8 c-3 -9 -8 -14 -10 -11 -3 3 -2 9 2
15 9 16 15 13 8 -4z m-1760 -114 c22 -61 43 -108 47 -104 4 4 24 56 45 116 21
59 42 107 47 107 11 0 9 -5 -42 -149 -23 -64 -44 -107 -53 -109 -15 -3 -17 0
-67 143 -15 44 -31 88 -36 99 -5 13 -3 17 6 14 8 -2 32 -55 53 -117z m517 89
c0 -23 4 -30 20 -30 11 0 20 -4 20 -10 0 -5 -10 -10 -21 -10 -20 0 -21 -4 -17
-71 3 -55 8 -74 23 -85 23 -17 14 -29 -13 -15 -11 6 -22 25 -26 42 -10 51 -7
209 4 209 6 0 10 -13 10 -30z m515 16 c25 -11 33 -19 29 -30 -7 -19 -5 -19
-40 -1 -36 18 -55 19 -78 2 -28 -21 -9 -45 49 -62 87 -25 108 -74 54 -127 -29
-29 -33 -30 -90 -25 -68 6 -72 8 -64 29 5 13 12 14 40 5 50 -15 100 1 100 33
0 16 -8 28 -25 36 -87 40 -105 51 -108 67 -14 70 53 106 133 73z m105 -16 c0
-25 4 -30 25 -30 16 0 25 -6 25 -15 0 -9 -9 -15 -25 -15 -24 0 -25 -3 -25 -60
0 -55 2 -62 25 -72 14 -6 25 -15 25 -20 0 -18 -31 -20 -55 -4 -24 16 -25 20
-25 131 0 96 3 115 15 115 10 0 15 -10 15 -30z m482 -32 l3 -62 36 32 c20 18
45 32 55 32 14 0 9 -9 -21 -40 l-39 -40 42 -60 c40 -57 41 -60 20 -60 -16 0
-32 14 -53 45 -16 25 -33 45 -37 45 -5 0 -8 -20 -8 -45 0 -38 -3 -45 -20 -45
-19 0 -20 7 -20 130 0 122 1 130 20 130 16 0 19 -8 22 -62z m193 30 c1 -20 -2
-24 -11 -17 -8 7 -14 6 -17 -3 -3 -7 -6 2 -6 20 -1 27 3 33 17 30 11 -2 17
-13 17 -30z m-44 -35 c13 -16 12 -17 -3 -4 -17 13 -22 21 -14 21 2 0 10 -8 17
-17z m-1502 -19 c12 -15 21 -40 21 -55 0 -29 0 -29 -65 -29 -72 0 -83 -12 -44
-51 17 -17 30 -20 65 -16 43 4 59 -5 28 -17 -45 -17 -106 3 -123 41 -45 98 56
206 118 127z m191 16 c17 -11 10 -13 -40 -10 -47 2 -75 -28 -75 -80 0 -55 26
-80 82 -80 27 0 42 -4 38 -10 -9 -15 -78 -12 -102 5 -50 35 -50 135 0 170 24
17 74 20 97 5z m265 -13 c20 -16 28 -35 32 -69 5 -42 3 -50 -25 -78 -41 -41
-83 -41 -124 0 -28 28 -30 36 -25 78 9 82 84 119 142 69z m85 7 c0 -14 2 -14
22 0 24 17 38 20 38 9 0 -5 -14 -16 -30 -25 -29 -17 -30 -19 -30 -93 0 -43 -4
-75 -10 -75 -6 0 -10 40 -10 100 0 60 4 100 10 100 6 0 10 -7 10 -16z m537 1
c30 -21 44 -75 32 -120 -25 -88 -143 -88 -168 0 -20 72 20 135 84 135 17 0 40
-7 52 -15z m198 -5 c0 -10 -8 -14 -27 -12 -58 6 -91 -42 -67 -100 11 -28 36
-40 74 -35 12 1 20 -4 20 -13 0 -19 -48 -25 -85 -10 -63 26 -68 148 -6 179 31
15 91 9 91 -9z m5344 -83 c8 -26 17 -47 21 -47 4 0 13 21 21 47 8 25 20 48 26
50 8 3 4 -21 -11 -64 -13 -38 -29 -68 -36 -68 -7 0 -23 30 -36 68 -15 43 -19
67 -11 64 6 -2 18 -25 26 -50z m638 38 c2 -6 -9 -11 -23 -10 -38 0 -40 -20 -5
-35 69 -28 36 -101 -33 -74 -27 10 -18 22 17 20 38 -1 43 19 8 37 -36 18 -48
42 -31 62 14 17 61 17 67 0z m333 -20 c0 -35 16 -47 26 -20 4 8 13 15 22 15
13 0 13 -3 -2 -19 -16 -18 -16 -21 -1 -50 19 -38 8 -40 -22 -3 l-22 27 -1 -27
c0 -16 -4 -28 -10 -28 -6 0 -10 30 -10 70 0 40 4 70 10 70 6 0 10 -16 10 -35z
m580 32 c0 -4 -34 -104 -45 -136 -3 -8 -8 -11 -11 -8 -8 7 38 147 48 147 4 0
8 -2 8 -3z m98 -9 c21 -21 13 -45 -25 -77 l-38 -30 43 -1 c23 0 42 -4 42 -10
0 -5 -22 -10 -50 -10 -62 0 -65 15 -14 63 42 40 39 62 -8 53 -26 -5 -29 -4
-18 9 15 18 51 20 68 3z m109 0 c14 -23 12 -106 -2 -118 -33 -27 -86 8 -70 46
4 11 7 27 6 37 -5 38 47 64 66 35z m127 -10 c44 -63 -17 -154 -68 -102 -9 9
-16 32 -16 54 0 64 52 94 84 48z m116 12 c0 -5 -11 -10 -25 -10 -32 0 -32 -16
-1 -24 27 -7 41 -35 31 -65 -7 -23 -37 -35 -65 -26 -31 10 -24 23 13 21 28 -1
32 2 32 24 0 22 -4 25 -33 23 -26 -1 -32 2 -28 14 3 8 6 23 6 34 0 15 7 19 35
19 19 0 35 -4 35 -10z m120 0 c0 -5 -11 -10 -25 -10 -14 0 -29 -8 -36 -21 -9
-18 -8 -20 9 -15 12 4 28 -1 43 -13 21 -16 22 -22 11 -45 -22 -48 -92 -22 -92
34 0 37 35 80 66 80 13 0 24 -4 24 -10z m92 -7 c39 -35 8 -122 -44 -123 -10 0
-18 5 -18 10 0 6 9 10 20 10 10 0 24 9 31 21 9 18 8 20 -9 15 -38 -12 -68 44
-40 72 17 17 38 15 60 -5z m118 -2 c-5 -11 -15 -23 -21 -26 -6 -5 -2 -13 11
-22 42 -29 8 -82 -43 -69 -37 9 -34 27 3 20 22 -5 31 -2 36 11 6 16 -3 28 -31
39 -6 2 -5 9 3 17 18 19 15 29 -8 29 -11 0 -20 5 -20 10 0 6 18 10 40 10 37 0
40 -2 30 -19z m108 11 c22 -14 27 -78 8 -107 -32 -49 -86 -21 -86 45 0 56 39
86 78 62z m-2097 -50 c-15 -5 -14 -59 2 -65 6 -2 9 -8 5 -12 -13 -14 -36 15
-40 53 -7 54 0 67 24 45 11 -10 15 -19 9 -21z m359 13 c9 -10 9 -15 1 -15 -15
0 -14 -57 2 -63 6 -2 9 -7 6 -11 -15 -17 -37 8 -41 47 -7 58 5 74 32 42z
m-532 -7 c23 -23 13 -38 -24 -38 -46 0 -41 -23 7 -30 27 -4 30 -7 16 -13 -28
-11 -44 -9 -61 9 -32 31 -14 84 29 84 12 0 26 -5 33 -12z m109 5 c14 -6 10 -9
-17 -13 -29 -4 -35 -9 -35 -30 0 -21 5 -26 33 -28 36 -4 34 -22 -3 -22 -28 0
-55 24 -55 50 0 22 25 50 45 50 7 0 22 -3 32 -7z m177 -9 c21 -20 20 -43 -1
-66 -20 -22 -46 -23 -67 -2 -31 30 -9 84 34 84 10 0 26 -7 34 -16z m86 6 c0
-4 -7 -10 -15 -14 -9 -3 -15 -19 -15 -41 0 -19 -4 -35 -10 -35 -5 0 -10 22
-10 49 0 45 2 49 25 49 14 0 25 -4 25 -8z m274 -6 c31 -30 9 -84 -34 -84 -24
0 -50 26 -50 50 0 24 26 50 50 50 10 0 26 -7 34 -16z m113 9 c14 -6 10 -9 -17
-13 -29 -4 -35 -9 -35 -30 0 -21 5 -26 33 -28 36 -4 34 -22 -3 -22 -28 0 -55
24 -55 50 0 22 25 50 45 50 7 0 22 -3 32 -7z m258 -2 c3 -5 -9 -11 -27 -13
-28 -2 -33 -7 -33 -28 0 -21 5 -26 33 -28 36 -4 34 -22 -3 -22 -28 0 -55 24
-55 50 0 37 67 69 85 41z m99 -7 c21 -20 20 -43 -1 -66 -20 -22 -46 -23 -67
-2 -31 30 -9 84 34 84 10 0 26 -7 34 -16z m113 4 c7 -5 14 -5 18 2 10 16 42
12 49 -6 10 -25 7 -84 -4 -84 -5 0 -10 18 -10 41 0 33 -3 40 -17 37 -13 -2
-19 -14 -21 -41 -4 -50 -22 -47 -22 4 0 36 -2 40 -22 37 -19 -2 -24 -10 -26
-40 -5 -55 -22 -46 -22 10 0 48 0 49 33 49 17 0 37 -4 44 -9z m-327 -78 c0 -5
-4 -10 -10 -10 -5 0 -10 5 -10 10 0 6 5 10 10 10 6 0 10 -4 10 -10z"/>
<path d="M2150 500 c0 -5 5 -10 10 -10 6 0 10 5 10 10 0 6 -4 10 -10 10 -5 0
-10 -4 -10 -10z"/>
<path d="M536 418 c-28 -39 -21 -48 39 -48 59 0 67 9 45 51 -15 27 -64 25 -84
-3z"/>
<path d="M986 424 c-50 -50 -21 -144 44 -144 48 0 80 50 66 104 -13 53 -75 75
-110 40z"/>
<path d="M1616 408 c-32 -46 -8 -118 39 -118 28 0 55 34 55 70 0 36 -27 70
-55 70 -13 0 -31 -10 -39 -22z"/>
<path d="M8962 374 c2 -11 11 -20 22 -22 13 -3 17 1 14 14 -2 11 -11 20 -22
22 -13 3 -17 -1 -14 -14z"/>
<path d="M8954 325 c-8 -21 10 -39 30 -32 22 9 20 24 -4 37 -16 9 -22 8 -26
-5z"/>
<path d="M9074 365 c-9 -38 3 -75 26 -75 13 0 22 9 26 25 9 38 -3 75 -26 75
-13 0 -22 -9 -26 -25z"/>
<path d="M9306 331 c-11 -18 6 -42 28 -39 29 4 29 42 -1 46 -11 2 -24 -1 -27
-7z"/>
<path d="M9414 375 c-4 -9 -2 -21 4 -27 15 -15 44 -1 40 19 -4 23 -36 29 -44
8z"/>
<path d="M9634 365 c-9 -38 3 -75 26 -75 23 0 35 37 26 75 -4 16 -13 25 -26
25 -13 0 -22 -9 -26 -25z"/>
<path d="M7365 340 c-3 -5 3 -10 14 -10 11 0 23 5 26 10 3 6 -3 10 -14 10 -11
0 -23 -4 -26 -10z"/>
<path d="M7644 336 c-10 -26 4 -48 28 -44 17 2 23 10 23 28 0 18 -6 26 -23 28
-13 2 -25 -3 -28 -12z"/>
<path d="M8004 336 c-10 -26 4 -48 28 -44 17 2 23 10 23 28 0 18 -6 26 -23 28
-13 2 -25 -3 -28 -12z"/>
<path d="M8474 336 c-10 -26 4 -48 28 -44 17 2 23 10 23 28 0 18 -6 26 -23 28
-13 2 -25 -3 -28 -12z"/>
</g>
</svg>
